<svg width="21" height="21" viewBox="0 0 21 21" fill="none" xmlns="http://www.w3.org/2000/svg">
<g clip-path="url(#clip0_68_82)">
<path d="M10.5 14C12.433 14 14 12.433 14 10.5C14 8.567 12.433 7 10.5 7C8.567 7 7 8.567 7 10.5C7 12.433 8.567 14 10.5 14Z" stroke="#737373" stroke-width="2" stroke-linecap="round" stroke-linejoin="round"/>
<path d="M14 7.00001V11.375C14 12.0712 14.2766 12.7389 14.7689 13.2312C15.2611 13.7234 15.9288 14 16.625 14C17.3212 14 17.9889 13.7234 18.4812 13.2312C18.9734 12.7389 19.25 12.0712 19.25 11.375V10.5C19.2499 8.52516 18.5817 6.60842 17.3541 5.06147C16.1265 3.51452 14.4117 2.42833 12.4886 1.97952C10.5654 1.5307 8.54695 1.74567 6.76144 2.58945C4.97592 3.43324 3.52836 4.85622 2.65411 6.62701C1.77986 8.39781 1.53035 10.4123 1.94616 12.3429C2.36196 14.2734 3.41861 16.0066 4.94431 17.2605C6.47001 18.5144 8.37501 19.2153 10.3496 19.2493C12.3241 19.2832 14.2521 18.6482 15.82 17.4475" stroke="#737373" stroke-width="2" stroke-linecap="round" stroke-linejoin="round"/>
</g>
<defs>
<clipPath id="clip0_68_82">
<rect width="21" height="21" fill="white"/>
</clipPath>
</defs>
</svg>
