<svg width="24" height="24" viewBox="0 0 24 24" fill="none" xmlns="http://www.w3.org/2000/svg">
<g clip-path="url(#clip0_47_81)">
<path d="M23.4404 12.2245C23.4404 11.2413 23.3606 10.5237 23.1879 9.77963H11.96V14.2176H18.5505C18.4177 15.3205 17.7002 16.9815 16.1056 18.0976L16.0833 18.2461L19.6334 20.9963L19.8793 21.0209C22.1382 18.9347 23.4404 15.8653 23.4404 12.2245Z" fill="#4285F4"/>
<path d="M11.96 23.9176C15.1888 23.9176 17.8995 22.8545 19.8794 21.0209L16.1057 18.0976C15.0958 18.8018 13.7405 19.2934 11.96 19.2934C8.79759 19.2934 6.11353 17.2074 5.15673 14.324L5.01649 14.3359L1.32507 17.1927L1.27679 17.3269C3.24333 21.2334 7.28275 23.9176 11.96 23.9176Z" fill="#34A853"/>
<path d="M5.15673 14.324C4.90427 13.5799 4.75817 12.7826 4.75817 11.9588C4.75817 11.1349 4.90427 10.3377 5.14345 9.5936L5.13676 9.43513L1.39908 6.53241L1.27679 6.59058C0.46629 8.21168 0.0012207 10.0321 0.0012207 11.9588C0.0012207 13.8855 0.46629 15.7058 1.27679 17.3269L5.15673 14.324Z" fill="#FBBC05"/>
<path d="M11.96 4.62403C14.2056 4.62403 15.7203 5.59402 16.584 6.40461L19.9591 3.10928C17.8863 1.1826 15.1888 0 11.96 0C7.28275 0 3.24333 2.68406 1.27679 6.59056L5.14345 9.59359C6.11353 6.7102 8.79759 4.62403 11.96 4.62403Z" fill="#EB4335"/>
</g>
<defs>
<clipPath id="clip0_47_81">
<rect width="23.4528" height="24" fill="white"/>
</clipPath>
</defs>
</svg>
