<svg width="19" height="21" viewBox="0 0 19 21" fill="none" xmlns="http://www.w3.org/2000/svg">
<path d="M1.625 5.25L4.25 1.75H14.75L17.375 5.25M1.625 5.25V17.5C1.625 17.9641 1.80937 18.4092 2.13756 18.7374C2.46575 19.0656 2.91087 19.25 3.375 19.25H15.625C16.0891 19.25 16.5342 19.0656 16.8624 18.7374C17.1906 18.4092 17.375 17.9641 17.375 17.5V5.25M1.625 5.25H17.375M13 8.75C13 9.67826 12.6312 10.5685 11.9749 11.2249C11.3185 11.8812 10.4283 12.25 9.5 12.25C8.57174 12.25 7.6815 11.8812 7.02513 11.2249C6.36875 10.5685 6 9.67826 6 8.75" stroke="#868686" stroke-width="2" stroke-linecap="round" stroke-linejoin="round"/>
</svg>
