<svg width="28" height="26" viewBox="0 0 28 26" fill="none" xmlns="http://www.w3.org/2000/svg">
<path d="M22.5 25.8125H5.5C4.65462 25.8125 3.84387 25.4767 3.2461 24.8789C2.64832 24.2811 2.3125 23.4704 2.3125 22.625V12C2.3125 11.7182 2.42444 11.448 2.6237 11.2487C2.82296 11.0494 3.09321 10.9375 3.375 10.9375C3.65679 10.9375 3.92704 11.0494 4.1263 11.2487C4.32556 11.448 4.4375 11.7182 4.4375 12V22.625C4.4375 22.9068 4.54944 23.177 4.7487 23.3763C4.94796 23.5756 5.21821 23.6875 5.5 23.6875H22.5C22.7818 23.6875 23.052 23.5756 23.2513 23.3763C23.4506 23.177 23.5625 22.9068 23.5625 22.625V12C23.5625 11.7182 23.6744 11.448 23.8737 11.2487C24.073 11.0494 24.3432 10.9375 24.625 10.9375C24.9068 10.9375 25.177 11.0494 25.3763 11.2487C25.5756 11.448 25.6875 11.7182 25.6875 12V22.625C25.6875 23.4704 25.3517 24.2811 24.7539 24.8789C24.1561 25.4767 23.3454 25.8125 22.5 25.8125Z" fill="#383838"/>
<path d="M12.9375 25.8125H7.625C7.34321 25.8125 7.07296 25.7006 6.8737 25.5013C6.67444 25.302 6.5625 25.0318 6.5625 24.75V18.375C6.5625 17.5296 6.89832 16.7189 7.4961 16.1211C8.09387 15.5233 8.90462 15.1875 9.75 15.1875H10.8125C11.6579 15.1875 12.4686 15.5233 13.0664 16.1211C13.6642 16.7189 14 17.5296 14 18.375V24.75C14 25.0318 13.8881 25.302 13.6888 25.5013C13.4895 25.7006 13.2193 25.8125 12.9375 25.8125ZM8.6875 23.6875H11.875V18.375C11.875 18.0932 11.7631 17.823 11.5638 17.6237C11.3645 17.4244 11.0943 17.3125 10.8125 17.3125H9.75C9.46821 17.3125 9.19796 17.4244 8.9987 17.6237C8.79944 17.823 8.6875 18.0932 8.6875 18.375V23.6875Z" fill="#383838"/>
<path d="M23.5625 13.0625C22.4353 13.0625 21.3543 12.6147 20.5573 11.8177C19.7603 11.0207 19.3125 9.93967 19.3125 8.8125C19.3125 8.53071 19.4244 8.26046 19.6237 8.0612C19.823 7.86194 20.0932 7.75 20.375 7.75C20.6568 7.75 20.927 7.86194 21.1263 8.0612C21.3256 8.26046 21.4375 8.53071 21.4375 8.8125C21.4375 9.37609 21.6614 9.91659 22.0599 10.3151C22.4584 10.7136 22.9989 10.9375 23.5625 10.9375C24.1261 10.9375 24.6666 10.7136 25.0651 10.3151C25.4636 9.91659 25.6875 9.37609 25.6875 8.8125V8.005L22.9037 2.4375H5.09625L2.3125 8.005V8.8125C2.3125 9.37609 2.53638 9.91659 2.9349 10.3151C3.33341 10.7136 3.87391 10.9375 4.4375 10.9375C5.00109 10.9375 5.54159 10.7136 5.9401 10.3151C6.33862 9.91659 6.5625 9.37609 6.5625 8.8125C6.5625 8.53071 6.67444 8.26046 6.8737 8.0612C7.07296 7.86194 7.34321 7.75 7.625 7.75C7.90679 7.75 8.17704 7.86194 8.3763 8.0612C8.57556 8.26046 8.6875 8.53071 8.6875 8.8125C8.6875 9.93967 8.23973 11.0207 7.4427 11.8177C6.64567 12.6147 5.56467 13.0625 4.4375 13.0625C3.31033 13.0625 2.22933 12.6147 1.4323 11.8177C0.635266 11.0207 0.1875 9.93967 0.1875 8.8125V7.75C0.188497 7.58367 0.22853 7.41991 0.304375 7.27188L3.49188 0.896875C3.58017 0.721654 3.71526 0.574303 3.88217 0.471156C4.04908 0.368009 4.24129 0.313095 4.4375 0.3125H23.5625C23.7587 0.313095 23.9509 0.368009 24.1178 0.471156C24.2847 0.574303 24.4198 0.721654 24.5081 0.896875L27.6956 7.27188C27.7715 7.41991 27.8115 7.58367 27.8125 7.75V8.8125C27.8125 9.93967 27.3647 11.0207 26.5677 11.8177C25.7707 12.6147 24.6897 13.0625 23.5625 13.0625Z" fill="#383838"/>
<path d="M10.8125 13.0625C9.68533 13.0625 8.60433 12.6147 7.8073 11.8177C7.01027 11.0207 6.5625 9.93967 6.5625 8.8125C6.5625 8.53071 6.67444 8.26046 6.8737 8.0612C7.07296 7.86194 7.34321 7.75 7.625 7.75C7.90679 7.75 8.17704 7.86194 8.3763 8.0612C8.57556 8.26046 8.6875 8.53071 8.6875 8.8125C8.6875 9.37609 8.91138 9.91659 9.3099 10.3151C9.70841 10.7136 10.2489 10.9375 10.8125 10.9375C11.3761 10.9375 11.9166 10.7136 12.3151 10.3151C12.7136 9.91659 12.9375 9.37609 12.9375 8.8125C12.9375 8.53071 13.0494 8.26046 13.2487 8.0612C13.448 7.86194 13.7182 7.75 14 7.75C14.2818 7.75 14.552 7.86194 14.7513 8.0612C14.9506 8.26046 15.0625 8.53071 15.0625 8.8125C15.0625 9.93967 14.6147 11.0207 13.8177 11.8177C13.0207 12.6147 11.9397 13.0625 10.8125 13.0625Z" fill="#383838"/>
<path d="M17.1875 13.0625C16.0603 13.0625 14.9793 12.6147 14.1823 11.8177C13.3853 11.0207 12.9375 9.93967 12.9375 8.8125C12.9375 8.53071 13.0494 8.26046 13.2487 8.0612C13.448 7.86194 13.7182 7.75 14 7.75C14.2818 7.75 14.552 7.86194 14.7513 8.0612C14.9506 8.26046 15.0625 8.53071 15.0625 8.8125C15.0625 9.37609 15.2864 9.91659 15.6849 10.3151C16.0834 10.7136 16.6239 10.9375 17.1875 10.9375C17.7511 10.9375 18.2916 10.7136 18.6901 10.3151C19.0886 9.91659 19.3125 9.37609 19.3125 8.8125C19.3125 8.53071 19.4244 8.26046 19.6237 8.0612C19.823 7.86194 20.0932 7.75 20.375 7.75C20.6568 7.75 20.927 7.86194 21.1263 8.0612C21.3256 8.26046 21.4375 8.53071 21.4375 8.8125C21.4375 9.93967 20.9897 11.0207 20.1927 11.8177C19.3957 12.6147 18.3147 13.0625 17.1875 13.0625Z" fill="#383838"/>
<path d="M20.375 18.375H17.1875C16.9057 18.375 16.6355 18.2631 16.4362 18.0638C16.2369 17.8645 16.125 17.5943 16.125 17.3125C16.125 17.0307 16.2369 16.7605 16.4362 16.5612C16.6355 16.3619 16.9057 16.25 17.1875 16.25H20.375C20.6568 16.25 20.927 16.3619 21.1263 16.5612C21.3256 16.7605 21.4375 17.0307 21.4375 17.3125C21.4375 17.5943 21.3256 17.8645 21.1263 18.0638C20.927 18.2631 20.6568 18.375 20.375 18.375Z" fill="#383838"/>
</svg>
