<svg width="21" height="21" viewBox="0 0 21 21" fill="none" xmlns="http://www.w3.org/2000/svg">
<g clip-path="url(#clip0_38_213)">
<path d="M15.6975 15.6975C14.2018 16.8376 12.3805 17.4692 10.5 17.5C4.375 17.5 0.875 10.5 0.875 10.5C1.9634 8.47165 3.47299 6.69952 5.3025 5.30249M8.6625 3.70999C9.26479 3.56901 9.88143 3.49854 10.5 3.49999C16.625 3.49999 20.125 10.5 20.125 10.5C19.5939 11.4936 18.9604 12.4291 18.235 13.2912M12.355 12.355C12.1147 12.6129 11.8249 12.8198 11.5029 12.9632C11.1809 13.1067 10.8333 13.1838 10.4808 13.1901C10.1284 13.1963 9.77827 13.1314 9.45141 12.9994C9.12455 12.8674 8.82763 12.6709 8.57837 12.4216C8.3291 12.1724 8.13259 11.8754 8.00057 11.5486C7.86855 11.2217 7.80371 10.8716 7.80993 10.5192C7.81615 10.1667 7.8933 9.81911 8.03677 9.49711C8.18024 9.17511 8.3871 8.88531 8.645 8.64499" stroke="#737373" stroke-width="2" stroke-linecap="round" stroke-linejoin="round"/>
<path d="M0.875 0.875L20.125 20.125" stroke="#737373" stroke-width="2" stroke-linecap="round" stroke-linejoin="round"/>
</g>
<defs>
<clipPath id="clip0_38_213">
<rect width="21" height="21" fill="white"/>
</clipPath>
</defs>
</svg>
