<svg width="34" height="28" viewBox="0 0 34 28" fill="none" xmlns="http://www.w3.org/2000/svg">
<path d="M22.6665 19.6667V1.25H1.4165V19.6667H22.6665ZM22.6665 19.6667H32.5832V12.5833L28.3332 8.33333H22.6665L22.6665 19.6667ZM11.3332 23.2083C11.3332 25.1643 9.74751 26.75 7.7915 26.75C5.8355 26.75 4.24984 25.1643 4.24984 23.2083C4.24984 21.2523 5.8355 19.6667 7.7915 19.6667C9.74751 19.6667 11.3332 21.2523 11.3332 23.2083ZM29.7498 23.2083C29.7498 25.1643 28.1642 26.75 26.2082 26.75C24.2522 26.75 22.6665 25.1643 22.6665 23.2083C22.6665 21.2523 24.2522 19.6667 26.2082 19.6667C28.1642 19.6667 29.7498 21.2523 29.7498 23.2083Z" stroke="#383838" stroke-width="2" stroke-linecap="round" stroke-linejoin="round"/>
</svg>
